<svg width="40" height="40" viewBox="0 0 40 40" fill="none" xmlns="http://www.w3.org/2000/svg">
<path fill-rule="evenodd" clip-rule="evenodd" d="M19.9167 15.8334C17.3854 15.8334 15.3334 17.8854 15.3334 20.4167C15.3334 22.9481 17.3854 25.0001 19.9167 25.0001C22.448 25.0001 24.5 22.9481 24.5 20.4167C24.5 17.8854 22.448 15.8334 19.9167 15.8334ZM17.1667 20.4167C17.1667 18.898 18.3979 17.6667 19.9167 17.6667C21.4355 17.6667 22.6667 18.898 22.6667 20.4167C22.6667 21.9355 21.4355 23.1667 19.9167 23.1667C18.3979 23.1667 17.1667 21.9355 17.1667 20.4167Z" fill="#EFF0FA" style="fill:#EFF0FA;fill:color(display-p3 0.9373 0.9412 0.9804);fill-opacity:1;"/>
<path d="M16.2501 26.8335C15.0345 26.8335 13.8687 27.3164 13.0092 28.1759C12.1496 29.0355 11.6667 30.2013 11.6667 31.4168V33.2502C11.6667 33.7564 12.0772 34.1668 12.5834 34.1668C13.0897 34.1668 13.5001 33.7564 13.5001 33.2502V31.4168C13.5001 30.6875 13.7898 29.988 14.3055 29.4723C14.8213 28.9566 15.5207 28.6668 16.2501 28.6668H23.5834C24.3128 28.6668 25.0122 28.9566 25.528 29.4723C26.0437 29.988 26.3334 30.6875 26.3334 31.4168V33.2502C26.3334 33.7564 26.7438 34.1668 27.2501 34.1668C27.7563 34.1668 28.1667 33.7564 28.1667 33.2502V31.4168C28.1667 30.2013 27.6839 29.0355 26.8243 28.1759C25.9648 27.3164 24.799 26.8335 23.5834 26.8335H16.2501Z" fill="#EFF0FA" style="fill:#EFF0FA;fill:color(display-p3 0.9373 0.9412 0.9804);fill-opacity:1;"/>
<path d="M8.33341 23.3334C8.33341 22.4167 9.08341 21.6667 10.0001 21.6667C10.9167 21.6667 11.6667 22.4167 11.6667 23.3334C11.6667 24.2501 10.9167 25.0001 10.0001 25.0001C9.08341 25.0001 8.33341 24.2501 8.33341 23.3334Z" fill="#EFF0FA" style="fill:#EFF0FA;fill:color(display-p3 0.9373 0.9412 0.9804);fill-opacity:1;"/>
<path d="M8.33341 16.6667C8.33341 15.7501 9.08341 15.0001 10.0001 15.0001C10.9167 15.0001 11.6667 15.7501 11.6667 16.6667C11.6667 17.5834 10.9167 18.3334 10.0001 18.3334C9.08341 18.3334 8.33341 17.5834 8.33341 16.6667Z" fill="#EFF0FA" style="fill:#EFF0FA;fill:color(display-p3 0.9373 0.9412 0.9804);fill-opacity:1;"/>
<path d="M4.16675 16.6667C4.16675 16.2001 4.53341 15.8334 5.00008 15.8334C5.46675 15.8334 5.83341 16.2001 5.83341 16.6667C5.83341 17.1334 5.46675 17.5001 5.00008 17.5001C4.53341 17.5001 4.16675 17.1334 4.16675 16.6667Z" fill="#EFF0FA" style="fill:#EFF0FA;fill:color(display-p3 0.9373 0.9412 0.9804);fill-opacity:1;"/>
<path d="M8.33341 10.0001C8.33341 9.08342 9.08341 8.33342 10.0001 8.33342C10.9167 8.33342 11.6667 9.08342 11.6667 10.0001C11.6667 10.9167 10.9167 11.6667 10.0001 11.6667C9.08341 11.6667 8.33341 10.9167 8.33341 10.0001Z" fill="#EFF0FA" style="fill:#EFF0FA;fill:color(display-p3 0.9373 0.9412 0.9804);fill-opacity:1;"/>
<path d="M35.8334 16.6667C35.8334 17.1334 35.4667 17.5001 35.0001 17.5001C34.5334 17.5001 34.1667 17.1334 34.1667 16.6667C34.1667 16.2001 34.5334 15.8334 35.0001 15.8334C35.4667 15.8334 35.8334 16.2001 35.8334 16.6667Z" fill="#EFF0FA" style="fill:#EFF0FA;fill:color(display-p3 0.9373 0.9412 0.9804);fill-opacity:1;"/>
<path d="M25.0001 10.0001C25.0001 10.9167 24.2501 11.6667 23.3334 11.6667C22.4167 11.6667 21.6667 10.9167 21.6667 10.0001C21.6667 9.08342 22.4167 8.33342 23.3334 8.33342C24.2501 8.33342 25.0001 9.08342 25.0001 10.0001Z" fill="#EFF0FA" style="fill:#EFF0FA;fill:color(display-p3 0.9373 0.9412 0.9804);fill-opacity:1;"/>
<path d="M24.1667 5.00008C24.1667 5.46675 23.8001 5.83341 23.3334 5.83341C22.8667 5.83341 22.5001 5.46675 22.5001 5.00008C22.5001 4.53341 22.8667 4.16675 23.3334 4.16675C23.8001 4.16675 24.1667 4.53341 24.1667 5.00008Z" fill="#EFF0FA" style="fill:#EFF0FA;fill:color(display-p3 0.9373 0.9412 0.9804);fill-opacity:1;"/>
<path d="M4.16675 23.3334C4.16675 22.8668 4.53341 22.5001 5.00008 22.5001C5.46675 22.5001 5.83341 22.8668 5.83341 23.3334C5.83341 23.8001 5.46675 24.1667 5.00008 24.1667C4.53341 24.1667 4.16675 23.8001 4.16675 23.3334Z" fill="#EFF0FA" style="fill:#EFF0FA;fill:color(display-p3 0.9373 0.9412 0.9804);fill-opacity:1;"/>
<path d="M17.5001 5.00008C17.5001 5.46675 17.1334 5.83341 16.6667 5.83341C16.2001 5.83341 15.8334 5.46675 15.8334 5.00008C15.8334 4.53341 16.2001 4.16675 16.6667 4.16675C17.1334 4.16675 17.5001 4.53341 17.5001 5.00008Z" fill="#EFF0FA" style="fill:#EFF0FA;fill:color(display-p3 0.9373 0.9412 0.9804);fill-opacity:1;"/>
<path d="M18.3334 10.0001C18.3334 10.9167 17.5834 11.6667 16.6667 11.6667C15.7501 11.6667 15.0001 10.9167 15.0001 10.0001C15.0001 9.08342 15.7501 8.33342 16.6667 8.33342C17.5834 8.33342 18.3334 9.08342 18.3334 10.0001Z" fill="#EFF0FA" style="fill:#EFF0FA;fill:color(display-p3 0.9373 0.9412 0.9804);fill-opacity:1;"/>
<path d="M28.3334 23.3334C28.3334 22.4167 29.0834 21.6667 30.0001 21.6667C30.9167 21.6667 31.6667 22.4167 31.6667 23.3334C31.6667 24.2501 30.9167 25.0001 30.0001 25.0001C29.0834 25.0001 28.3334 24.2501 28.3334 23.3334Z" fill="#EFF0FA" style="fill:#EFF0FA;fill:color(display-p3 0.9373 0.9412 0.9804);fill-opacity:1;"/>
<path d="M28.3334 16.6667C28.3334 15.7501 29.0834 15.0001 30.0001 15.0001C30.9167 15.0001 31.6667 15.7501 31.6667 16.6667C31.6667 17.5834 30.9167 18.3334 30.0001 18.3334C29.0834 18.3334 28.3334 17.5834 28.3334 16.6667Z" fill="#EFF0FA" style="fill:#EFF0FA;fill:color(display-p3 0.9373 0.9412 0.9804);fill-opacity:1;"/>
<path d="M28.3334 10.0001C28.3334 9.08342 29.0834 8.33342 30.0001 8.33342C30.9167 8.33342 31.6667 9.08342 31.6667 10.0001C31.6667 10.9167 30.9167 11.6667 30.0001 11.6667C29.0834 11.6667 28.3334 10.9167 28.3334 10.0001Z" fill="#EFF0FA" style="fill:#EFF0FA;fill:color(display-p3 0.9373 0.9412 0.9804);fill-opacity:1;"/>
<path d="M34.1667 23.3334C34.1667 22.8668 34.5334 22.5001 35.0001 22.5001C35.4667 22.5001 35.8334 22.8668 35.8334 23.3334C35.8334 23.8001 35.4667 24.1667 35.0001 24.1667C34.5334 24.1667 34.1667 23.8001 34.1667 23.3334Z" fill="#EFF0FA" style="fill:#EFF0FA;fill:color(display-p3 0.9373 0.9412 0.9804);fill-opacity:1;"/>
</svg>
