<svg width="24" height="25" viewBox="0 0 24 25" fill="none" xmlns="http://www.w3.org/2000/svg">
<path d="M7.66944 3.73964C7.34992 3.42012 6.83187 3.42012 6.51235 3.73964C6.19283 4.05916 6.19283 4.5772 6.51235 4.89672L7.57018 5.95455H5.45455C4.80356 5.95455 4.17924 6.21315 3.71892 6.67347C3.2586 7.13378 3 7.75811 3 8.40909V16.5909C3 17.2419 3.2586 17.8662 3.71892 18.3265C4.17924 18.7869 4.80356 19.0455 5.45455 19.0455H11.1818C11.6337 19.0455 12 18.6791 12 18.2273C12 17.7754 11.6337 17.4091 11.1818 17.4091H5.45455C5.23755 17.4091 5.02944 17.3229 4.876 17.1695C4.72256 17.016 4.63636 16.8079 4.63636 16.5909V8.40909C4.63636 8.1921 4.72256 7.98399 4.876 7.83055C5.02944 7.67711 5.23755 7.59091 5.45455 7.59091H7.57017L6.51235 8.64873C6.19283 8.96825 6.19283 9.48629 6.51235 9.80581C6.83187 10.1253 7.34992 10.1253 7.66944 9.80581L10.1207 7.3545C10.1321 7.34332 10.143 7.3318 10.1537 7.31998C10.2129 7.25432 10.2595 7.18138 10.2937 7.10424C10.3387 7.00291 10.3636 6.89074 10.3636 6.77273C10.3636 6.65561 10.339 6.54423 10.2947 6.44349C10.2595 6.36332 10.2108 6.28765 10.1486 6.21991C10.1398 6.21024 10.1307 6.20078 10.1213 6.19154L7.66944 3.73964Z" fill="#EFF0FA" style="fill:#EFF0FA;fill:color(display-p3 0.9373 0.9412 0.9804);fill-opacity:1;"/>
<path d="M12 6.77273C12 6.32086 12.3663 5.95455 12.8182 5.95455H18.5455C19.1964 5.95455 19.8208 6.21315 20.2811 6.67347C20.7414 7.13378 21 7.75811 21 8.40909V16.5909C21 17.2419 20.7414 17.8662 20.2811 18.3265C19.8208 18.7869 19.1964 19.0455 18.5455 19.0455H16.4298L17.4876 20.1033C17.8071 20.4228 17.8071 20.9408 17.4876 21.2604C17.1681 21.5799 16.6501 21.5799 16.3305 21.2604L13.876 18.8058C13.7246 18.6544 13.645 18.4585 13.637 18.2603C13.6361 18.2383 13.6361 18.2163 13.637 18.1943C13.6408 18.0986 13.661 18.0071 13.695 17.9226C13.7349 17.8229 13.7953 17.7295 13.876 17.6487L16.3305 15.1942C16.6501 14.8747 17.1681 14.8747 17.4876 15.1942C17.8071 15.5137 17.8071 16.0318 17.4876 16.3513L16.4298 17.4091H18.5455C18.7624 17.4091 18.9706 17.3229 19.124 17.1695C19.2774 17.016 19.3636 16.8079 19.3636 16.5909V8.40909C19.3636 8.1921 19.2774 7.98399 19.124 7.83055C18.9706 7.67711 18.7624 7.59091 18.5455 7.59091H12.8182C12.3663 7.59091 12 7.2246 12 6.77273Z" fill="#EFF0FA" style="fill:#EFF0FA;fill:color(display-p3 0.9373 0.9412 0.9804);fill-opacity:1;"/>
<path fill-rule="evenodd" clip-rule="evenodd" d="M12 9.22727C10.1925 9.22727 8.72729 10.6925 8.72729 12.5C8.72729 14.3075 10.1925 15.7727 12 15.7727C13.8075 15.7727 15.2727 14.3075 15.2727 12.5C15.2727 10.6925 13.8075 9.22727 12 9.22727ZM10.3637 12.5C10.3637 11.5963 11.0963 10.8636 12 10.8636C12.9038 10.8636 13.6364 11.5963 13.6364 12.5C13.6364 13.4037 12.9038 14.1364 12 14.1364C11.0963 14.1364 10.3637 13.4037 10.3637 12.5Z" fill="#EFF0FA" style="fill:#EFF0FA;fill:color(display-p3 0.9373 0.9412 0.9804);fill-opacity:1;"/>
</svg>
