<svg width="41" height="40" viewBox="0 0 41 40" fill="none" xmlns="http://www.w3.org/2000/svg">
<path fill-rule="evenodd" clip-rule="evenodd" d="M20.3333 7.72727C13.5552 7.72727 8.06052 13.222 8.06052 20C8.06052 26.778 13.5552 32.2727 20.3333 32.2727C27.1113 32.2727 32.606 26.778 32.606 20C32.606 13.222 27.1113 7.72727 20.3333 7.72727ZM5.33325 20C5.33325 11.7157 12.049 5 20.3333 5C28.6175 5 35.3333 11.7157 35.3333 20C35.3333 28.2843 28.6175 35 20.3333 35C12.049 35 5.33325 28.2843 5.33325 20ZM25.3884 14.9449C25.9209 15.4774 25.9209 16.3408 25.3884 16.8734L22.2617 20L25.3884 23.1267C25.9209 23.6592 25.9209 24.5226 25.3884 25.0552C24.8559 25.5877 23.9924 25.5877 23.4599 25.0552L20.3332 21.9285L17.2066 25.0552C16.674 25.5877 15.8106 25.5877 15.2781 25.0552C14.7456 24.5226 14.7456 23.6592 15.2781 23.1267L18.4048 20L15.2781 16.8734C14.7456 16.3408 14.7456 15.4774 15.2781 14.9449C15.8106 14.4123 16.674 14.4123 17.2066 14.9449L20.3332 18.0716L23.4599 14.9449C23.9924 14.4123 24.8559 14.4123 25.3884 14.9449Z" fill="#EFF0FA" style="fill:#EFF0FA;fill:color(display-p3 0.9373 0.9412 0.9804);fill-opacity:1;"/>
</svg>
