<svg width="32" height="33" viewBox="0 0 32 33" fill="none" xmlns="http://www.w3.org/2000/svg">
<path d="M16 10.7972C12.3636 10.7972 9.25818 13.0591 8 16.2518C9.25818 19.4445 12.3636 21.7063 16 21.7063C19.6364 21.7063 22.7418 19.4445 24 16.2518C22.7418 13.0591 19.6364 10.7972 16 10.7972ZM16 19.8882C13.9927 19.8882 12.3636 18.2591 12.3636 16.2518C12.3636 14.2445 13.9927 12.6154 16 12.6154C18.0073 12.6154 19.6364 14.2445 19.6364 16.2518C19.6364 18.2591 18.0073 19.8882 16 19.8882ZM16 14.07C14.7927 14.07 13.8182 15.0445 13.8182 16.2518C13.8182 17.4591 14.7927 18.4336 16 18.4336C17.2073 18.4336 18.1818 17.4591 18.1818 16.2518C18.1818 15.0445 17.2073 14.07 16 14.07Z" fill="#4D4D4D"/>
</svg>
