<svg width="32" height="33" viewBox="0 0 32 33" fill="none" xmlns="http://www.w3.org/2000/svg">
<path fill-rule="evenodd" clip-rule="evenodd" d="M11.9057 16.7503C11.9057 19.1612 13.8584 21.1139 16.2693 21.1139C18.6693 21.1139 20.6329 19.1612 20.6329 16.7503C20.6329 14.3394 18.6802 12.3866 16.2693 12.3866C13.8584 12.3866 11.9057 14.3394 11.9057 16.7503ZM14.0875 16.7503C14.0875 15.5503 15.0693 14.5684 16.2693 14.5684C17.4693 14.5684 18.4511 15.5503 18.4511 16.7503C18.4511 17.9503 17.4693 18.9321 16.2693 18.9321C15.0693 18.9321 14.0875 17.9503 14.0875 16.7503Z" fill="#EFF0FA" style="fill:#EFF0FA;fill:color(display-p3 0.9373 0.9412 0.9804);fill-opacity:1;"/>
<path fill-rule="evenodd" clip-rule="evenodd" d="M16.0293 28.7502H16.5093C17.382 28.7502 18.2002 28.4121 18.8329 27.7902C19.4547 27.1684 19.7929 26.3502 19.7929 25.4775V25.2702C19.7929 25.0739 19.8365 24.8884 19.9347 24.7248C20.0329 24.5612 20.1638 24.4193 20.3383 24.3212L20.8074 24.0484C21.1456 23.863 21.5383 23.8412 21.9311 24.0702L22.062 24.1357C22.8038 24.5612 23.7093 24.6812 24.5383 24.463C25.3893 24.2448 26.0874 23.6993 26.5347 22.9357L26.7638 22.5212C27.2002 21.7684 27.3202 20.8848 27.0911 20.0448C26.862 19.2048 26.3165 18.4957 25.5311 18.0375L25.4002 17.9721C25.2256 17.8739 25.0947 17.7321 24.9965 17.5684C24.9093 17.3939 24.8547 17.2084 24.8547 17.0121V16.4666C24.8438 16.2812 24.8983 16.0848 24.9965 15.9212C25.0947 15.7575 25.2256 15.6266 25.4111 15.5175L25.5747 15.4084C26.3274 14.9721 26.862 14.263 27.0911 13.423C27.3202 12.583 27.2002 11.6993 26.7638 10.9466L26.5238 10.5321C26.0874 9.77934 25.3783 9.24479 24.5383 9.0157C23.6983 8.78661 22.8038 8.90661 22.0838 9.32115L21.8874 9.43024C21.5493 9.6157 21.1238 9.6157 20.7965 9.43024L20.3274 9.15752C20.1529 9.07024 20.022 8.92843 19.9238 8.76479C19.8365 8.60115 19.782 8.40479 19.782 8.21934V8.02297C19.782 7.15024 19.4438 6.33206 18.822 5.71024C18.2002 5.08843 17.382 4.75024 16.5093 4.75024H16.0293C15.1565 4.75024 14.3274 5.08843 13.7165 5.71024C13.0947 6.33206 12.7565 7.15024 12.7565 8.02297V8.21934C12.7565 8.40479 12.702 8.60115 12.6147 8.76479C12.5165 8.92843 12.3747 9.07024 12.2111 9.16843L11.742 9.43024C11.4038 9.62661 11.0111 9.64843 10.6074 9.41934L10.4765 9.35388C9.7238 8.91752 8.84016 8.79752 8.00016 9.02661C7.17107 9.24479 6.44016 9.80115 6.01471 10.543L5.77471 10.9575C5.33834 11.7102 5.22925 12.5939 5.44744 13.4339C5.67653 14.2848 6.21107 14.983 6.92016 15.3975L7.13834 15.5393C7.30198 15.6266 7.4438 15.7684 7.52016 15.9212C7.60744 16.0848 7.66198 16.2702 7.66198 16.4557V17.023C7.66198 17.2084 7.61834 17.4048 7.52016 17.5684C7.42198 17.743 7.29107 17.8739 7.10562 17.983L6.9638 18.0702C6.21107 18.5066 5.67653 19.2157 5.44744 20.0557C5.21834 20.9066 5.33834 21.7793 5.77471 22.543L6.02562 22.9466C6.45107 23.6993 7.18198 24.2448 8.01107 24.4739C8.85107 24.703 9.73471 24.583 10.4547 24.1684L10.6511 24.0593C10.9893 23.8739 11.4147 23.8739 11.742 24.0593L12.2111 24.3321C12.3856 24.4302 12.5165 24.5721 12.6147 24.7357C12.702 24.8993 12.7565 25.0957 12.7565 25.2812V25.4775C12.7565 26.3502 13.0947 27.1684 13.7165 27.7902C14.3383 28.4121 15.1565 28.7502 16.0293 28.7502ZM12.8329 22.1721C12.3311 21.8884 11.7747 21.7357 11.1965 21.7357C10.6183 21.7357 10.0511 21.8884 9.6038 22.1612L9.40744 22.2702C9.15653 22.4121 8.86198 22.4557 8.57834 22.3793C8.29471 22.303 8.05471 22.1175 7.91289 21.8666L7.67289 21.4521C7.53107 21.2012 7.48744 20.9066 7.5638 20.623C7.64016 20.3393 7.81471 20.0993 8.08744 19.9466L8.22925 19.8593C8.73107 19.5757 9.14562 19.1612 9.42925 18.6593C9.7238 18.1575 9.86562 17.5902 9.86562 17.023V16.4557C9.86562 15.8884 9.70198 15.3321 9.41834 14.8302C9.13471 14.3284 8.72016 13.9248 8.2838 13.6739L8.06562 13.5321C7.81471 13.3902 7.62925 13.1612 7.55289 12.8775C7.48744 12.5939 7.52016 12.2993 7.66198 12.0484L7.91289 11.6339C8.05471 11.383 8.29471 11.1975 8.56744 11.1321C8.85107 11.0557 9.14562 11.0884 9.42925 11.2521L9.56016 11.3175C10.542 11.8957 11.8293 11.8957 12.8329 11.3175L13.302 11.0557C13.8038 10.7612 14.2183 10.3466 14.502 9.8557C14.7856 9.35388 14.9383 8.79752 14.9383 8.21934V8.02297C14.9383 7.73934 15.0583 7.4557 15.2547 7.24843C15.462 7.05206 15.7456 6.93206 16.0293 6.93206H16.5093C16.7929 6.93206 17.0765 7.05206 17.2838 7.24843C17.4802 7.4557 17.6002 7.73934 17.6002 8.02297V8.23024C17.6002 8.79752 17.7529 9.36479 18.0365 9.86661C18.3202 10.3575 18.7347 10.7721 19.2256 11.0557L19.6947 11.3284C20.6874 11.9066 22.0074 11.8957 22.9347 11.3502L23.1311 11.2412C23.382 11.0993 23.6874 11.0557 23.9602 11.1321C24.2438 11.2084 24.4838 11.383 24.6256 11.6339L24.8656 12.0484C25.0074 12.2993 25.0511 12.6048 24.9747 12.8775C24.8983 13.1502 24.7238 13.3902 24.462 13.543L24.3093 13.6302C23.8074 13.9139 23.3929 14.3284 23.1093 14.8302C22.8256 15.3212 22.6729 15.8993 22.6729 16.4666V17.0121C22.6729 17.5793 22.8256 18.1466 23.1093 18.6484C23.3929 19.1502 23.8074 19.5648 24.342 19.8702L24.4729 19.9357C24.7238 20.0775 24.9093 20.3284 24.9856 20.6012C25.0511 20.8848 25.0183 21.1793 24.8656 21.4412L24.6365 21.8557C24.4838 22.1066 24.2547 22.2812 23.9711 22.3575C23.6874 22.4339 23.382 22.4012 23.1093 22.2375L22.9783 22.1721C21.9856 21.5939 20.6983 21.5939 19.7056 22.1721L19.2365 22.4448C18.7347 22.7393 18.3202 23.143 18.0365 23.6448C17.7529 24.1466 17.6002 24.7139 17.6002 25.2812V25.4775C17.6002 25.7721 17.4911 26.0448 17.2838 26.2521C17.0765 26.4593 16.8038 26.5684 16.5093 26.5684H16.0293C15.7347 26.5684 15.462 26.4593 15.2438 26.2521C15.0365 26.0448 14.9274 25.7721 14.9274 25.4775V25.2702C14.9274 24.6921 14.7747 24.1357 14.4911 23.6339C14.2074 23.143 13.7929 22.7284 13.302 22.4448L12.8329 22.1721Z" fill="#EFF0FA" style="fill:#EFF0FA;fill:color(display-p3 0.9373 0.9412 0.9804);fill-opacity:1;"/>
</svg>
