<svg width="32" height="33" viewBox="0 0 32 33" fill="none" xmlns="http://www.w3.org/2000/svg">
<path fill-rule="evenodd" clip-rule="evenodd" d="M12.4127 4.71874C13.2462 3.88524 14.3766 3.41699 15.5554 3.41699C16.7341 3.41699 17.8646 3.88524 18.6981 4.71874C19.5316 5.55223 19.9998 6.6827 19.9998 7.86144V16.7503C19.9998 17.9291 19.5316 19.0595 18.6981 19.893C17.8646 20.7265 16.7341 21.1948 15.5554 21.1948C14.3766 21.1948 13.2462 20.7265 12.4127 19.893C11.5792 19.0595 11.1109 17.9291 11.1109 16.7503V7.86144C11.1109 6.6827 11.5792 5.55223 12.4127 4.71874ZM15.5554 5.63921C14.966 5.63921 14.4008 5.87334 13.984 6.29009C13.5673 6.70684 13.3332 7.27207 13.3332 7.86144V16.7503C13.3332 17.3397 13.5673 17.9049 13.984 18.3217C14.4008 18.7384 14.966 18.9725 15.5554 18.9725C16.1447 18.9725 16.71 18.7384 17.1267 18.3217C17.5435 17.9049 17.7776 17.3397 17.7776 16.7503V7.86144C17.7776 7.27207 17.5435 6.70684 17.1267 6.29009C16.71 5.87334 16.1447 5.63921 15.5554 5.63921Z" fill="#EFF0FA" style="fill:#EFF0FA;fill:color(display-p3 0.9373 0.9412 0.9804);fill-opacity:1;"/>
<path fill-rule="evenodd" clip-rule="evenodd" d="M7.77761 13.417C8.39126 13.417 8.88873 13.9145 8.88873 14.5281V16.7503C8.88873 18.5184 9.5911 20.2141 10.8413 21.4644C12.0916 22.7146 13.7873 23.417 15.5554 23.417C17.3235 23.417 19.0192 22.7146 20.2694 21.4644C21.5197 20.2141 22.2221 18.5184 22.2221 16.7503V14.5281C22.2221 13.9145 22.7195 13.417 23.3332 13.417C23.9468 13.417 24.4443 13.9145 24.4443 14.5281V16.7503C24.4443 19.1078 23.5078 21.3687 21.8408 23.0357C20.1738 24.7027 17.9129 25.6392 15.5554 25.6392C13.1979 25.6392 10.937 24.7027 9.27 23.0357C7.60301 21.3687 6.6665 19.1078 6.6665 16.7503V14.5281C6.6665 13.9145 7.16397 13.417 7.77761 13.417Z" fill="#EFF0FA" style="fill:#EFF0FA;fill:color(display-p3 0.9373 0.9412 0.9804);fill-opacity:1;"/>
<path fill-rule="evenodd" clip-rule="evenodd" d="M15.5554 23.417C16.169 23.417 16.6665 23.9145 16.6665 24.5281V28.9725C16.6665 29.5862 16.169 30.0837 15.5554 30.0837C14.9417 30.0837 14.4443 29.5862 14.4443 28.9725V24.5281C14.4443 23.9145 14.9417 23.417 15.5554 23.417Z" fill="#EFF0FA" style="fill:#EFF0FA;fill:color(display-p3 0.9373 0.9412 0.9804);fill-opacity:1;"/>
<path fill-rule="evenodd" clip-rule="evenodd" d="M9.99984 28.9725C9.99984 28.3588 10.4973 27.8614 11.1109 27.8614H19.9998C20.6135 27.8614 21.1109 28.3588 21.1109 28.9725C21.1109 29.5861 20.6135 30.0836 19.9998 30.0836H11.1109C10.4973 30.0836 9.99984 29.5861 9.99984 28.9725Z" fill="#EFF0FA" style="fill:#EFF0FA;fill:color(display-p3 0.9373 0.9412 0.9804);fill-opacity:1;"/>
</svg>
