<svg width="25" height="24" viewBox="0 0 25 24" fill="none" xmlns="http://www.w3.org/2000/svg">
<path fill-rule="evenodd" clip-rule="evenodd" d="M2.7438 2.2438C3.06887 1.91873 3.59398 1.91873 3.91905 2.2438L10.5202 8.84493C10.5463 8.86551 10.5714 8.88784 10.5955 8.9119L14.863 13.1795C14.8868 13.2033 14.9089 13.2282 14.9292 13.254L17.0715 15.3963C17.1342 15.4318 17.1932 15.4763 17.2468 15.5299C17.3012 15.5844 17.3468 15.6444 17.3834 15.7081L22.2562 20.581C22.5813 20.906 22.5813 21.4311 22.2562 21.7562C21.9311 22.0813 21.406 22.0813 21.081 21.7562L16.6084 17.2837C15.7961 17.9209 14.8459 18.3637 13.8294 18.5722C13.6662 18.6057 13.5022 18.633 13.3377 18.6542V20.3308H15.8382C16.2966 20.3308 16.6717 20.7059 16.6717 21.1643C16.6717 21.6228 16.2966 21.9978 15.8382 21.9978H12.518C12.5134 21.9979 12.5088 21.998 12.5042 21.998C12.4996 21.998 12.4949 21.9979 12.4903 21.9978H9.17012C8.7117 21.9978 8.33662 21.6311 8.33662 21.1643C8.33662 20.7059 8.7117 20.3308 9.17012 20.3308H11.6707V18.6587C11.082 18.5862 10.5018 18.4349 9.9453 18.2055C8.72005 17.6971 7.66983 16.8385 6.93634 15.73C6.21119 14.6214 5.82778 13.3211 5.83611 11.9959V10.3289C5.83611 9.87043 6.21119 9.49535 6.66962 9.49535C7.12805 9.49535 7.50313 9.87043 7.50313 10.3289V12.0042C7.49479 13.0044 7.78652 13.9796 8.33663 14.8048C8.88675 15.63 9.67858 16.2801 10.5954 16.6635C11.128 16.8842 11.6881 17.0082 12.2536 17.0356C12.3328 17.0105 12.417 16.9969 12.5042 16.9969C12.5904 16.9969 12.6737 17.0102 12.752 17.0348C13.0037 17.0218 13.2551 16.9897 13.5044 16.9386C14.1991 16.7961 14.8515 16.5097 15.4224 16.0977L14.1957 14.871C13.8757 15.0587 13.5245 15.192 13.1543 15.2632C12.9376 15.3132 12.7209 15.3299 12.5042 15.3299C12.0708 15.3299 11.6373 15.2466 11.2289 15.0715C10.6205 14.8215 10.1037 14.3964 9.73694 13.8463C9.36186 13.3045 9.17015 12.6627 9.17015 12.0042V9.8454L2.7438 3.41905C2.41873 3.09398 2.41873 2.56887 2.7438 2.2438ZM12.9307 13.6059L10.8456 11.5208L10.8372 11.5124V11.9959C10.8372 12.3293 10.9372 12.646 11.1206 12.9211C11.3039 13.1961 11.5623 13.4045 11.8707 13.5379C12.1708 13.6629 12.5042 13.6962 12.8293 13.6296C12.8607 13.6217 12.8922 13.6138 12.9307 13.6059Z" fill="#EFF0FA" style="fill:#EFF0FA;fill:color(display-p3 0.9373 0.9412 0.9804);fill-opacity:1;"/>
<path d="M15.0047 10.6123C14.5463 10.6123 14.1712 10.2372 14.1712 9.77875V5.32782C14.1712 4.91107 14.0212 4.51932 13.7378 4.21092C13.4627 3.90253 13.0793 3.71082 12.6709 3.66915C12.2625 3.62747 11.8457 3.73583 11.5123 3.98588C11.1789 4.22759 10.9539 4.59434 10.8705 4.99442C10.7788 5.44451 10.3371 5.73624 9.88697 5.64456C9.43688 5.55287 9.14515 5.11945 9.23684 4.66935C9.40354 3.86085 9.86197 3.14404 10.5288 2.65227C11.1956 2.1605 12.0207 1.93545 12.8459 2.0188C13.6711 2.10215 14.4296 2.48557 14.988 3.10236C15.5298 3.71082 15.8382 4.50265 15.8382 5.33616V9.78709C15.8382 10.2455 15.4631 10.6123 15.0047 10.6123Z" fill="#EFF0FA" style="fill:#EFF0FA;fill:color(display-p3 0.9373 0.9412 0.9804);fill-opacity:1;"/>
<path d="M19.1722 10.3289C19.1722 9.87043 18.7971 9.49535 18.3387 9.49535C17.8803 9.49535 17.5052 9.87043 17.5052 10.3289V11.9959C17.5052 12.2959 17.4802 12.5877 17.4219 12.8794C17.3385 13.3295 17.6469 13.7629 18.097 13.8463C18.5471 13.9296 18.9805 13.6212 19.0639 13.1711C19.1389 12.7794 19.1722 12.3876 19.1722 11.9959V10.3289Z" fill="#EFF0FA" style="fill:#EFF0FA;fill:color(display-p3 0.9373 0.9412 0.9804);fill-opacity:1;"/>
</svg>
