<svg width="24" height="25" viewBox="0 0 24 25" fill="none" xmlns="http://www.w3.org/2000/svg">
<path d="M12 7.50355C13.1226 7.50355 14 6.6223 14 5.4973C14 4.39105 13.1038 3.50043 12 3.50043C10.9057 3.50043 10 4.39105 10 5.4973C10 6.59418 10.9057 7.50355 12 7.50355ZM12 14.4786C13.1226 14.4786 14 13.6067 14 12.5004C14 11.4036 13.1038 10.5129 12 10.5129C10.9057 10.5129 10 11.4036 10 12.5004C10 13.5879 10.9057 14.4786 12 14.4786ZM12 21.5004C13.1226 21.5004 14 20.6192 14 19.5036C14 18.3879 13.1038 17.4973 12 17.4973C10.9057 17.4973 10 18.3879 10 19.5036C10 20.5911 10.9057 21.5004 12 21.5004Z" fill="#EFF0FA" style="fill:#EFF0FA;fill:color(display-p3 0.9373 0.9412 0.9804);fill-opacity:1;"/>
</svg>
