<svg width="24" height="25" viewBox="0 0 24 25" fill="none" xmlns="http://www.w3.org/2000/svg">
<path d="M15.8151 7.01395C15.656 6.85489 15.656 6.59701 15.8151 6.43795L17.6169 4.63614C17.7759 4.47708 18.0338 4.47708 18.1929 4.63614C18.3519 4.79519 18.3519 5.05307 18.1929 5.21213L16.391 7.01395C16.232 7.173 15.9741 7.173 15.8151 7.01395Z" fill="#EFF0FA" style="fill:#EFF0FA;fill:color(display-p3 0.9373 0.9412 0.9804);fill-opacity:1;"/>
<path d="M3.12933 9.44701C2.97027 9.60607 2.97027 9.86395 3.12933 10.023C3.28838 10.1821 3.54627 10.1821 3.70532 10.023L8.49012 5.23821C8.64918 5.07915 8.64918 4.82127 8.49012 4.66221C8.33107 4.50316 8.07319 4.50316 7.91413 4.66221L3.12933 9.44701Z" fill="#EFF0FA" style="fill:#EFF0FA;fill:color(display-p3 0.9373 0.9412 0.9804);fill-opacity:1;"/>
<path d="M3.16711 6.18371C3.00805 6.34276 3.00805 6.60064 3.16711 6.7597C3.32616 6.91876 3.58405 6.91876 3.7431 6.7597L5.25934 5.24346C5.41839 5.08441 5.41839 4.82653 5.25934 4.66747C5.10028 4.50841 4.8424 4.50841 4.68334 4.66747L3.16711 6.18371Z" fill="#EFF0FA" style="fill:#EFF0FA;fill:color(display-p3 0.9373 0.9412 0.9804);fill-opacity:1;"/>
<path d="M3.11929 13.2585C2.96024 13.0995 2.96024 12.8416 3.11929 12.6825L11.1135 4.68837C11.2725 4.52932 11.5304 4.52932 11.6894 4.68837C11.8485 4.84743 11.8485 5.10531 11.6894 5.26437L3.69529 13.2585C3.53623 13.4176 3.27835 13.4176 3.11929 13.2585Z" fill="#EFF0FA" style="fill:#EFF0FA;fill:color(display-p3 0.9373 0.9412 0.9804);fill-opacity:1;"/>
<path d="M13.3867 5.64084C13.2277 5.79989 13.2277 6.05777 13.3867 6.21683C13.5458 6.37589 13.8037 6.37589 13.9627 6.21683L14.9377 5.24187C15.0967 5.08281 15.0967 4.82493 14.9377 4.66587C14.7786 4.50682 14.5208 4.50682 14.3617 4.66587L13.3867 5.64084Z" fill="#EFF0FA" style="fill:#EFF0FA;fill:color(display-p3 0.9373 0.9412 0.9804);fill-opacity:1;"/>
<path d="M3.132 16.4715C2.97295 16.3125 2.97295 16.0546 3.132 15.8955L7.07593 11.9516C7.23499 11.7925 7.49287 11.7925 7.65193 11.9516C7.81098 12.1107 7.81098 12.3685 7.65193 12.5276L3.708 16.4715C3.54894 16.6306 3.29106 16.6306 3.132 16.4715Z" fill="#EFF0FA" style="fill:#EFF0FA;fill:color(display-p3 0.9373 0.9412 0.9804);fill-opacity:1;"/>
<path d="M3.12231 19.1307C2.96325 19.2898 2.96325 19.5477 3.12231 19.7067C3.28137 19.8658 3.53925 19.8658 3.6983 19.7067L8.2786 15.1264C8.43765 14.9674 8.43765 14.7095 8.2786 14.5504C8.11954 14.3914 7.86166 14.3914 7.70261 14.5504L3.12231 19.1307Z" fill="#EFF0FA" style="fill:#EFF0FA;fill:color(display-p3 0.9373 0.9412 0.9804);fill-opacity:1;"/>
<path d="M16.8573 8.62123C16.6982 8.78028 16.6982 9.03817 16.8573 9.19722C17.0163 9.35628 17.2742 9.35628 17.4333 9.19722L21.3047 5.32576C21.4638 5.1667 21.4638 4.90882 21.3047 4.74977C21.1457 4.59071 20.8878 4.59071 20.7287 4.74977L16.8573 8.62123Z" fill="#EFF0FA" style="fill:#EFF0FA;fill:color(display-p3 0.9373 0.9412 0.9804);fill-opacity:1;"/>
<path d="M16.8383 12.4418C16.6793 12.2828 16.6793 12.0249 16.8383 11.8658L20.7429 7.96129C20.9019 7.80224 21.1598 7.80224 21.3189 7.96129C21.4779 8.12035 21.4779 8.37823 21.3189 8.53729L17.4143 12.4418C17.2553 12.6009 16.9974 12.6009 16.8383 12.4418Z" fill="#EFF0FA" style="fill:#EFF0FA;fill:color(display-p3 0.9373 0.9412 0.9804);fill-opacity:1;"/>
<path d="M17.1439 14.7858C16.9849 14.9449 16.9849 15.2028 17.1439 15.3618C17.303 15.5209 17.5609 15.5209 17.7199 15.3618L21.3264 11.7553C21.4855 11.5962 21.4855 11.3383 21.3264 11.1793C21.1674 11.0202 20.9095 11.0202 20.7505 11.1793L17.1439 14.7858Z" fill="#EFF0FA" style="fill:#EFF0FA;fill:color(display-p3 0.9373 0.9412 0.9804);fill-opacity:1;"/>
<path d="M18.1589 17.5724C17.9998 17.4134 17.9998 17.1555 18.1589 16.9965L20.8047 14.3506C20.9638 14.1916 21.2217 14.1916 21.3807 14.3506C21.5398 14.5097 21.5398 14.7676 21.3807 14.9266L18.7349 17.5724C18.5758 17.7315 18.318 17.7315 18.1589 17.5724Z" fill="#EFF0FA" style="fill:#EFF0FA;fill:color(display-p3 0.9373 0.9412 0.9804);fill-opacity:1;"/>
<path d="M18.9746 19.1755C18.8156 19.3346 18.8156 19.5925 18.9746 19.7515C19.1337 19.9106 19.3916 19.9106 19.5506 19.7515L21.3379 17.9643C21.497 17.8052 21.497 17.5473 21.3379 17.3883C21.1788 17.2292 20.921 17.2292 20.7619 17.3883L18.9746 19.1755Z" fill="#EFF0FA" style="fill:#EFF0FA;fill:color(display-p3 0.9373 0.9412 0.9804);fill-opacity:1;"/>
<path fill-rule="evenodd" clip-rule="evenodd" d="M9.86444 8.3314C10.5048 7.69105 11.3733 7.3313 12.2789 7.3313C13.1845 7.3313 14.053 7.69105 14.6933 8.3314C15.3337 8.97175 15.6934 9.84026 15.6934 10.7459C15.6934 11.6514 15.3337 12.5199 14.6933 13.1603C14.053 13.8007 13.1845 14.1604 12.2789 14.1604C11.3733 14.1604 10.5048 13.8007 9.86444 13.1603C9.22409 12.5199 8.86435 11.6514 8.86435 10.7459C8.86435 9.84026 9.22409 8.97175 9.86444 8.3314ZM12.2789 8.55317C11.6974 8.55317 11.1396 8.78418 10.7284 9.19539C10.3172 9.6066 10.0862 10.1643 10.0862 10.7459C10.0862 11.3274 10.3172 11.8851 10.7284 12.2963C11.1396 12.7075 11.6974 12.9385 12.2789 12.9385C12.8604 12.9385 13.4182 12.7075 13.8294 12.2963C14.2406 11.8851 14.4716 11.3274 14.4716 10.7459C14.4716 10.1643 14.2406 9.6066 13.8294 9.19539C13.4182 8.78418 12.8604 8.55317 12.2789 8.55317Z" fill="#EFF0FA" style="fill:#EFF0FA;fill:color(display-p3 0.9373 0.9412 0.9804);fill-opacity:1;"/>
<path d="M9.53059 17.1342C10.2595 16.4053 11.2481 15.9958 12.2789 15.9958C13.3097 15.9958 14.2983 16.4053 15.0272 17.1342C15.6743 17.7813 16.0697 18.6331 16.1503 19.5374C16.1802 19.8735 16.4769 20.1216 16.813 20.0917C17.1491 20.0617 17.3973 19.765 17.3673 19.4289C17.2614 18.2403 16.7418 17.1208 15.8912 16.2702C14.9332 15.3122 13.6338 14.774 12.2789 14.774C10.924 14.774 9.62465 15.3122 8.6666 16.2702C7.81606 17.1208 7.29642 18.2403 7.1905 19.4289C7.16055 19.765 7.40872 20.0617 7.7448 20.0917C8.08087 20.1216 8.3776 19.8735 8.40754 19.5374C8.48813 18.6331 8.8835 17.7813 9.53059 17.1342Z" fill="#EFF0FA" style="fill:#EFF0FA;fill:color(display-p3 0.9373 0.9412 0.9804);fill-opacity:1;"/>
</svg>
