<svg width="19" height="14" viewBox="0 0 19 14" fill="none" xmlns="http://www.w3.org/2000/svg">
<path d="M4.29307 1.39691C4.61261 1.07728 4.61253 0.559133 4.2929 0.239599C3.97327 -0.0799346 3.45512 -0.0798564 3.13559 0.239774C1.44802 1.92785 0.5 4.21707 0.5 6.60401C0.5 8.99095 1.44802 11.2802 3.13559 12.9682C3.45512 13.2879 3.97327 13.288 4.2929 12.9684C4.61253 12.6489 4.61261 12.1307 4.29307 11.8111C2.91234 10.43 2.13668 8.55696 2.13668 6.60401C2.13668 4.65106 2.91234 2.77806 4.29307 1.39691Z" fill="white" style="fill:white;fill-opacity:1;"/>
<path d="M15.8644 0.239774C15.5449 -0.0798564 15.0267 -0.0799346 14.7071 0.239599C14.3875 0.559133 14.3874 1.07728 14.7069 1.39691C16.0877 2.77806 16.8633 4.65106 16.8633 6.60401C16.8633 8.55696 16.0877 10.43 14.7069 11.8111C14.3874 12.1307 14.3875 12.6489 14.7071 12.9684C15.0267 13.288 15.5449 13.2879 15.8644 12.9682C17.552 11.2802 18.5 8.99095 18.5 6.60401C18.5 4.21707 17.552 1.92785 15.8644 0.239774Z" fill="white" style="fill:white;fill-opacity:1;"/>
<path d="M6.60857 3.70504C6.92833 3.38563 6.92862 2.86749 6.60921 2.54773C6.28981 2.22797 5.77166 2.22768 5.4519 2.54709C4.9193 3.0791 4.49678 3.71087 4.2085 4.40629C3.92023 5.1017 3.77184 5.84712 3.77184 6.59992C3.77184 7.35272 3.92023 8.09813 4.2085 8.79355C4.49678 9.48896 4.9193 10.1207 5.4519 10.6528C5.77166 10.9722 6.28981 10.9719 6.60921 10.6521C6.92862 10.3323 6.92833 9.8142 6.60857 9.4948C6.22814 9.11479 5.92634 8.66352 5.72042 8.1668C5.51451 7.67007 5.40853 7.13763 5.40853 6.59992C5.40853 6.06221 5.51451 5.52977 5.72042 5.03304C5.92634 4.53631 6.22814 4.08505 6.60857 3.70504Z" fill="white" style="fill:white;fill-opacity:1;"/>
<path d="M13.5481 2.55527C13.2283 2.23587 12.7102 2.23615 12.3908 2.55591C12.0714 2.87567 12.0717 3.39382 12.3914 3.71322C12.7719 4.09323 13.0737 4.5445 13.2796 5.04122C13.4855 5.53795 13.5915 6.07039 13.5915 6.6081C13.5915 7.14582 13.4855 7.67826 13.2796 8.17498C13.0737 8.6717 12.7719 9.12297 12.3914 9.50298C12.0717 9.82239 12.0714 10.3405 12.3908 10.6603C12.7102 10.98 13.2283 10.9803 13.5481 10.6609C14.0807 10.1289 14.5032 9.49715 14.7915 8.80173C15.0798 8.10632 15.2282 7.3609 15.2282 6.6081C15.2282 5.8553 15.0798 5.10989 14.7915 4.41447C14.5032 3.71906 14.0807 3.08728 13.5481 2.55527Z" fill="white" style="fill:white;fill-opacity:1;"/>
<path fill-rule="evenodd" clip-rule="evenodd" d="M9.49998 4.14902C8.14411 4.14902 7.04496 5.24817 7.04496 6.60404C7.04496 7.95991 8.14411 9.05906 9.49998 9.05906C10.8559 9.05906 11.955 7.95991 11.955 6.60404C11.955 5.24817 10.8559 4.14902 9.49998 4.14902ZM8.68164 6.60404C8.68164 6.15208 9.04803 5.7857 9.49998 5.7857C9.95194 5.7857 10.3183 6.15208 10.3183 6.60404C10.3183 7.05599 9.95194 7.42238 9.49998 7.42238C9.04803 7.42238 8.68164 7.05599 8.68164 6.60404Z" fill="white" style="fill:white;fill-opacity:1;"/>
</svg>
