<svg width="41" height="40" viewBox="0 0 41 40" fill="none" xmlns="http://www.w3.org/2000/svg">
<path d="M20.6666 6.66675L17.834 15.2786C17.689 15.7194 17.4426 16.1199 17.1145 16.448C16.7864 16.7761 16.3859 17.0225 15.9451 17.1675L7.33325 20.0001L15.9451 22.8327C16.3859 22.9776 16.7864 23.2241 17.1145 23.5522C17.4426 23.8803 17.689 24.2808 17.834 24.7216L20.6666 33.3334L23.4992 24.7216C23.6441 24.2808 23.8906 23.8803 24.2187 23.5522C24.5468 23.2241 24.9473 22.9776 25.3881 22.8327L33.9999 20.0001L25.3881 17.1675C24.9473 17.0225 24.5468 16.7761 24.2187 16.448C23.8906 16.1199 23.6441 15.7194 23.4992 15.2786L20.6666 6.66675Z" stroke="#EFF0FA" style="stroke:#EFF0FA;stroke:color(display-p3 0.9373 0.9412 0.9804);stroke-opacity:1;" stroke-width="2" stroke-linecap="round" stroke-linejoin="round"/>
<path d="M10.2961 6.66675V12.5927" stroke="#EFF0FA" style="stroke:#EFF0FA;stroke:color(display-p3 0.9373 0.9412 0.9804);stroke-opacity:1;" stroke-width="2" stroke-linecap="round" stroke-linejoin="round"/>
<path d="M31.0369 27.4075V33.3334" stroke="#EFF0FA" style="stroke:#EFF0FA;stroke:color(display-p3 0.9373 0.9412 0.9804);stroke-opacity:1;" stroke-width="2" stroke-linecap="round" stroke-linejoin="round"/>
<path d="M7.33325 9.62964H13.2592" stroke="#EFF0FA" style="stroke:#EFF0FA;stroke:color(display-p3 0.9373 0.9412 0.9804);stroke-opacity:1;" stroke-width="2" stroke-linecap="round" stroke-linejoin="round"/>
<path d="M28.074 30.3704H33.9999" stroke="#EFF0FA" style="stroke:#EFF0FA;stroke:color(display-p3 0.9373 0.9412 0.9804);stroke-opacity:1;" stroke-width="2" stroke-linecap="round" stroke-linejoin="round"/>
</svg>
