<svg width="25" height="24" viewBox="0 0 25 24" fill="none" xmlns="http://www.w3.org/2000/svg">
<path fill-rule="evenodd" clip-rule="evenodd" d="M4.85146 3.23187C4.54229 2.92271 4.04104 2.92271 3.73187 3.23187C3.42271 3.54104 3.42271 4.04229 3.73187 4.35146L5.56704 6.18663C5.05079 6.25413 4.5678 6.49003 4.19562 6.86221C3.75022 7.30761 3.5 7.9117 3.5 8.54159V16.4583C3.5 17.0881 3.75022 17.6922 4.19562 18.1376C4.64102 18.583 5.24511 18.8333 5.875 18.8333H14.5833C15.2132 18.8333 15.8173 18.583 16.2627 18.1376C16.4799 17.9204 16.6507 17.6655 16.7687 17.3883L21.1485 21.7681C21.4577 22.0773 21.959 22.0773 22.2681 21.7681C22.5773 21.459 22.5773 20.9577 22.2681 20.6485L16.7331 15.1135C16.7309 15.1112 16.7287 15.109 16.7265 15.1068L8.01813 6.39846C8.01593 6.39627 8.01373 6.39409 8.01152 6.39193L4.85146 3.23187ZM7.13034 7.74992L15.375 15.9946V16.4583C15.375 16.6682 15.2916 16.8696 15.1431 17.018C14.9947 17.1665 14.7933 17.2499 14.5833 17.2499H5.875C5.66504 17.2499 5.46367 17.1665 5.31521 17.018C5.16674 16.8696 5.08333 16.6682 5.08333 16.4583V8.54159C5.08333 8.33163 5.16674 8.13026 5.31521 7.9818C5.46367 7.83333 5.66504 7.74992 5.875 7.74992H7.13034ZM11.9392 7.74992H14.5833C14.7933 7.74992 14.9947 7.83333 15.1431 7.9818C15.2916 8.13026 15.375 8.33163 15.375 8.54159V11.1858C15.375 11.3957 15.4584 11.5971 15.6069 11.7455L16.3985 12.5372C16.6735 12.8121 17.1073 12.8467 17.4223 12.6189L20.9167 10.0913V16.4583C20.9167 16.8955 21.2711 17.2499 21.7083 17.2499C22.1456 17.2499 22.5 16.8955 22.5 16.4583V8.54159C22.5 8.24419 22.3333 7.97188 22.0685 7.83659C21.8036 7.70129 21.4853 7.72584 21.2444 7.90014L17.041 10.9405L16.9583 10.8578V8.54159C16.9583 7.9117 16.7081 7.30761 16.2627 6.86221C15.8173 6.41681 15.2132 6.16659 14.5833 6.16659H11.9392C11.5019 6.16659 11.1475 6.52103 11.1475 6.95826C11.1475 7.39548 11.5019 7.74992 11.9392 7.74992Z" fill="#EFF0FA" style="fill:#EFF0FA;fill:color(display-p3 0.9373 0.9412 0.9804);fill-opacity:1;"/>
</svg>
