<svg width="24" height="25" viewBox="0 0 24 25" fill="none" xmlns="http://www.w3.org/2000/svg">
<path fill-rule="evenodd" clip-rule="evenodd" d="M16.4583 11.2951V8.875C16.4583 7.56332 15.395 6.5 14.0833 6.5H5.375C4.06332 6.5 3 7.56332 3 8.875V16.7917C3 18.1033 4.06332 19.1667 5.375 19.1667H14.0833C15.395 19.1667 16.4583 18.1033 16.4583 16.7917V14.3718L20.7482 17.436C20.9895 17.6083 21.3069 17.6314 21.5706 17.4957C21.8343 17.36 22 17.0883 22 16.7917V8.87508C22 8.57853 21.8343 8.30685 21.5706 8.17116C21.3069 8.03546 20.9895 8.05851 20.7482 8.23087L16.4583 11.2951ZM4.58333 8.875C4.58333 8.43777 4.93777 8.08333 5.375 8.08333H14.0833C14.5206 8.08333 14.875 8.43777 14.875 8.875V16.7917C14.875 17.2289 14.5206 17.5833 14.0833 17.5833H5.375C4.93777 17.5833 4.58333 17.2289 4.58333 16.7917V8.875ZM20.4167 15.2534L17.0287 12.8334L20.4167 10.4134V15.2534Z" fill="#EFF0FA" style="fill:#EFF0FA;fill:color(display-p3 0.9373 0.9412 0.9804);fill-opacity:1;"/>
</svg>
